<?xml version="1.0" standalone="no"?>
<!DOCTYPE svg PUBLIC "-//W3C//DTD SVG 20010904//EN"
 "http://www.w3.org/TR/2001/REC-SVG-20010904/DTD/svg10.dtd">
<svg version="1.0" xmlns="http://www.w3.org/2000/svg"
 width="2100.000000pt" height="2100.000000pt" viewBox="0 0 2100.000000 2100.000000"
 preserveAspectRatio="xMidYMid meet">
<metadata>
Created by potrace 1.11, written by Peter Selinger 2001-2013
</metadata>
<g transform="translate(0.000000,2100.000000) scale(0.100000,-0.100000)"
fill="#000000" stroke="none">
<path d="M10299 15296 c-2 -2 -58 -6 -124 -10 -66 -3 -131 -8 -145 -10 -14 -3
-56 -7 -95 -11 -38 -3 -79 -8 -90 -11 -11 -2 -36 -6 -55 -8 -67 -8 -125 -18
-140 -23 -8 -3 -26 -7 -40 -8 -47 -6 -96 -16 -255 -55 -295 -72 -594 -176
-855 -298 -30 -14 -57 -26 -60 -27 -11 -2 -115 -58 -120 -64 -3 -3 -12 -7 -20
-9 -19 -4 -221 -116 -278 -153 -24 -16 -45 -29 -48 -29 -6 0 -116 -71 -124
-80 -3 -3 -32 -23 -65 -44 -92 -61 -278 -201 -370 -281 -32 -27 -79 -68 -104
-90 -71 -61 -360 -352 -421 -424 -30 -35 -60 -69 -66 -76 -9 -8 -131 -165
-211 -270 -5 -5 -21 -30 -38 -55 -16 -25 -32 -47 -35 -50 -3 -3 -21 -30 -40
-60 -19 -30 -40 -61 -47 -68 -7 -7 -13 -19 -13 -27 0 -7 -4 -15 -8 -17 -7 -2
-67 -100 -125 -203 -84 -150 -182 -352 -247 -515 -23 -58 -49 -119 -56 -137
-8 -17 -14 -36 -14 -42 0 -6 -4 -19 -10 -29 -31 -56 -150 -483 -185 -662 -22
-112 -23 -118 -30 -165 -3 -22 -10 -67 -15 -100 -5 -33 -12 -85 -15 -115 -3
-30 -8 -73 -10 -95 -30 -266 -25 -788 9 -1040 3 -22 8 -60 11 -85 6 -45 12
-85 15 -85 0 0 3 -18 5 -40 2 -22 7 -51 9 -65 3 -14 9 -41 12 -60 17 -90 43
-212 54 -250 5 -19 24 -87 41 -150 65 -241 164 -505 274 -735 32 -66 59 -125
60 -131 2 -6 15 -29 29 -52 14 -23 26 -45 26 -50 0 -4 20 -41 45 -81 25 -40
45 -75 45 -78 0 -8 172 -275 225 -348 48 -68 167 -224 203 -266 120 -144 158
-186 317 -344 164 -164 306 -296 328 -304 6 -2 22 -15 36 -30 22 -21 85 -68
329 -249 13 -9 43 -28 65 -41 23 -13 44 -26 47 -30 10 -13 215 -134 228 -134
6 0 12 -4 12 -8 0 -3 28 -21 63 -39 34 -17 78 -41 97 -52 19 -11 35 -20 35
-19 0 1 52 -22 115 -52 111 -53 255 -113 370 -155 55 -21 91 -34 100 -37 3 -1
12 -4 20 -8 56 -22 407 -122 469 -134 14 -2 44 -9 66 -14 41 -10 68 -15 120
-24 17 -3 41 -7 55 -10 14 -3 41 -7 60 -10 19 -3 44 -7 55 -9 28 -5 191 -26
245 -31 172 -16 263 -19 470 -19 200 0 352 6 485 18 57 6 160 18 180 22 11 2
43 6 70 10 28 3 69 10 93 15 23 5 59 12 80 15 67 10 367 82 458 110 49 15 94
29 99 30 13 3 196 67 258 90 26 10 47 22 47 27 0 4 5 5 10 2 6 -4 40 7 76 24
37 17 72 31 80 31 8 0 14 5 14 10 0 6 5 10 11 10 41 0 576 284 587 312 2 4 8
8 14 8 9 0 199 123 231 150 7 6 53 40 102 76 87 64 151 117 280 227 126 108
468 461 524 540 8 12 22 28 30 37 9 8 28 31 43 50 14 19 44 58 66 85 97 125
352 518 352 543 0 5 5 12 11 14 5 2 11 10 12 18 2 8 10 26 19 40 9 14 35 63
58 110 23 47 45 92 50 100 13 21 70 150 104 235 16 39 34 84 41 100 52 123
155 453 190 605 2 8 10 44 19 80 8 36 18 81 21 100 3 19 8 46 10 60 3 14 7 36
10 50 3 14 7 36 9 50 5 24 16 103 21 145 1 11 5 40 9 65 4 25 9 65 10 90 2 25
8 86 12 135 16 178 9 694 -11 840 -2 17 -9 71 -16 120 -7 50 -12 93 -11 96 2
9 -43 251 -62 332 -8 36 -17 76 -20 88 -4 20 -37 148 -50 199 -11 39 -76 240
-91 280 -9 25 -26 70 -37 100 -11 30 -24 64 -29 75 -4 11 -29 70 -55 130 -53
126 -167 356 -231 463 -24 41 -43 75 -43 77 0 5 -142 228 -150 235 -3 3 -27
38 -54 79 -27 40 -55 78 -61 85 -6 6 -28 36 -50 66 -40 55 -160 201 -225 275
-69 78 -356 362 -425 421 -38 32 -76 65 -84 72 -41 39 -306 242 -315 242 -3 0
-17 10 -32 23 -14 12 -40 31 -58 42 -18 11 -44 27 -57 36 -71 47 -189 119
-195 119 -4 0 -15 6 -23 14 -28 24 -324 176 -332 170 -5 -3 -9 -1 -9 4 0 5
-39 26 -87 47 -49 20 -92 41 -97 46 -6 5 -16 9 -23 9 -7 0 -32 8 -56 19 -23
10 -67 28 -97 39 -30 11 -74 27 -98 36 -112 42 -296 97 -467 140 -34 9 -208
45 -240 51 -16 3 -41 7 -55 10 -46 9 -96 17 -225 34 -125 16 -185 23 -245 27
-84 5 -566 14 -571 10z m501 -980 c222 -20 401 -48 580 -92 58 -14 110 -26
115 -28 6 -1 30 -8 55 -15 43 -11 203 -62 207 -65 2 -2 -10 -37 -68 -196 -23
-63 -48 -133 -56 -155 -7 -22 -18 -49 -23 -60 -6 -11 -11 -30 -13 -43 -2 -13
-11 -32 -20 -43 -16 -18 -19 -18 -54 -4 -20 8 -38 13 -41 10 -3 -3 -10 0 -17
5 -13 11 -158 52 -192 54 -13 0 -23 4 -23 8 0 5 -3 7 -7 6 -7 -2 -39 4 -103
18 -48 10 -149 26 -250 39 -203 26 -563 26 -770 0 -103 -13 -225 -32 -225 -35
0 -1 -16 -3 -35 -6 -19 -2 -42 -7 -50 -10 -8 -4 -22 -8 -30 -9 -8 -2 -26 -6
-40 -10 -14 -3 -34 -8 -45 -10 -11 -2 -44 -11 -74 -20 -29 -9 -57 -13 -60 -8
-8 9 -35 78 -87 223 -21 58 -42 107 -46 108 -5 2 -6 7 -3 11 2 5 -9 43 -26 86
-16 43 -28 80 -25 82 19 19 431 113 561 128 22 3 73 9 113 15 40 5 121 13 180
16 59 4 108 7 109 8 6 5 396 -2 463 -8z m-2735 -1256 c0 -336 -2 -392 -15
-400 -8 -5 -12 -10 -8 -10 4 0 -3 -10 -15 -23 -35 -36 -71 -79 -97 -116 -14
-19 -33 -44 -42 -55 -10 -12 -19 -25 -20 -31 -2 -5 -13 -19 -26 -32 -13 -13
-20 -28 -16 -36 4 -6 4 -9 -1 -5 -8 7 -65 -74 -65 -92 0 -4 -4 -10 -9 -12 -10
-3 -35 -44 -77 -123 -15 -27 -35 -63 -46 -78 -11 -16 -18 -31 -15 -34 4 -3 -1
-12 -9 -20 -8 -8 -12 -19 -9 -24 4 -5 1 -9 -4 -9 -6 0 -11 -6 -11 -14 0 -8 -4
-16 -10 -18 -5 -1 -11 -13 -13 -26 -2 -12 -9 -28 -15 -34 -7 -7 -12 -16 -12
-21 0 -5 -7 -23 -14 -40 -16 -34 -72 -180 -99 -257 -33 -93 -103 -366 -112
-440 -2 -14 -6 -36 -9 -49 -3 -13 -8 -51 -11 -84 -3 -33 -7 -63 -10 -66 -9
-15 -19 -218 -19 -386 -1 -163 6 -288 19 -385 2 -19 7 -55 10 -80 6 -45 11
-78 19 -115 2 -11 11 -56 20 -100 15 -72 40 -175 53 -215 2 -8 4 -17 5 -20 0
-3 6 -20 13 -37 8 -18 12 -33 10 -33 -2 0 10 -37 26 -82 17 -46 38 -102 46
-125 8 -24 19 -43 25 -43 5 0 7 -4 4 -9 -7 -10 91 -224 104 -229 5 -2 6 -10 3
-18 -3 -8 0 -14 6 -14 6 0 11 -4 11 -10 0 -5 22 -46 48 -92 26 -46 55 -94 63
-108 7 -14 17 -27 20 -30 3 -3 14 -20 23 -37 9 -18 21 -33 27 -33 6 0 8 -4 5
-9 -3 -5 6 -21 19 -35 14 -15 25 -30 25 -35 0 -4 8 -16 18 -27 10 -10 31 -37
47 -59 40 -53 54 -70 92 -114 18 -20 33 -40 33 -44 0 -5 3 -6 8 -4 4 3 7 -183
7 -413 0 -316 -2 -417 -11 -412 -47 27 -323 295 -424 412 -36 41 -73 84 -83
95 -72 80 -280 377 -359 515 -112 194 -246 487 -312 685 -31 90 -99 334 -111
395 -2 8 -4 15 -5 15 -1 0 -3 13 -5 29 -2 16 -9 52 -15 80 -6 28 -13 67 -15
86 -3 19 -7 45 -9 57 -3 12 -8 53 -11 90 -4 37 -9 70 -10 73 -2 3 -7 57 -11
120 -14 212 -9 530 12 700 10 84 25 198 28 217 3 11 7 38 10 59 32 198 122
511 213 739 91 229 298 615 390 730 21 26 47 71 45 78 -1 4 2 7 7 7 5 0 40 42
78 93 39 50 80 103 92 117 12 14 46 52 74 84 99 113 368 374 421 408 6 4 11 8
11 8 0 0 0 -176 0 -390z m5068 227 c4 3 7 2 7 -4 0 -5 39 -50 88 -100 107
-110 229 -249 292 -333 14 -18 32 -41 40 -51 8 -10 26 -35 40 -54 14 -20 39
-55 56 -78 91 -123 271 -447 352 -632 134 -309 241 -690 282 -1005 6 -47 12
-98 15 -115 19 -139 25 -516 11 -695 -10 -129 -27 -277 -40 -347 -3 -11 -7
-38 -10 -59 -4 -22 -8 -46 -11 -54 -2 -8 -6 -26 -9 -40 -66 -366 -248 -832
-460 -1183 -59 -96 -157 -246 -178 -272 -5 -5 -34 -44 -65 -85 -52 -68 -115
-145 -190 -231 -15 -18 -82 -87 -148 -153 l-120 -121 -3 433 -2 433 25 27 c14
15 25 32 25 39 0 7 4 13 8 13 4 0 16 15 27 33 10 17 21 34 24 37 14 11 111
167 111 177 0 6 4 13 8 15 5 2 15 15 23 29 8 15 26 49 42 78 15 28 24 51 20
51 -5 0 -3 4 3 8 13 8 67 112 58 112 -3 0 2 7 11 16 9 9 14 23 11 30 -3 8 -2
14 3 14 8 0 44 84 41 96 -1 4 2 10 7 13 13 10 52 123 118 346 17 56 62 262 70
322 3 21 8 56 11 78 3 22 7 50 9 63 11 63 19 226 19 382 0 185 -5 282 -28 465
-4 29 -21 127 -32 182 -3 16 -7 40 -10 55 -3 14 -19 75 -35 135 -17 59 -31
114 -31 121 -1 6 -5 12 -10 12 -5 0 -7 4 -4 8 14 23 -175 483 -208 504 -6 4
-8 8 -3 8 10 0 -22 62 -37 72 -6 4 -7 8 -3 8 4 0 -8 25 -28 55 -19 31 -35 58
-35 61 0 8 -62 98 -73 105 -5 3 -9 10 -9 15 0 9 -26 48 -90 135 l-38 51 0 406
0 405 23 -21 c13 -12 27 -19 30 -15z m-2358 -412 c48 -6 177 -28 238 -40 16
-3 54 -13 85 -21 32 -8 65 -17 75 -19 45 -10 87 -30 87 -42 0 -7 -23 -74 -51
-149 -28 -75 -52 -141 -53 -147 -1 -7 -10 -30 -20 -51 -9 -22 -19 -51 -23 -65
-3 -14 -9 -30 -13 -36 -4 -5 -19 -44 -33 -85 -27 -78 -80 -224 -117 -320 -12
-30 -23 -62 -25 -70 -2 -8 -15 -45 -29 -82 -14 -38 -22 -68 -18 -68 4 0 2 -4
-4 -8 -6 -4 -20 -34 -32 -67 -51 -150 -73 -211 -82 -230 -6 -11 -27 -69 -49
-130 -22 -60 -56 -155 -76 -210 -20 -55 -38 -104 -39 -110 -2 -5 -7 -18 -11
-29 -6 -14 -10 -15 -15 -5 -8 15 -59 150 -105 279 -38 107 -135 371 -145 395
-5 11 -16 40 -24 65 -8 25 -32 88 -51 140 -20 52 -42 113 -50 135 -13 41 -40
114 -55 150 -5 11 -36 97 -70 190 -34 94 -68 188 -77 210 -8 22 -26 69 -38
105 -13 36 -37 103 -54 149 -17 46 -31 87 -31 91 0 6 40 18 72 21 4 0 22 5 40
10 18 6 49 12 68 15 19 2 58 9 85 14 28 5 82 12 120 16 39 3 72 8 74 10 6 5
393 -4 446 -11z m-1391 -710 c70 -192 134 -366 142 -385 15 -38 164 -439 168
-455 2 -5 6 -17 9 -25 7 -18 78 -213 117 -320 15 -41 69 -187 120 -325 51
-137 107 -290 125 -340 18 -49 43 -116 55 -148 l22 -57 431 2 431 3 17 45 c10
25 41 106 68 180 148 404 383 1043 456 1240 45 124 136 370 201 548 65 177
123 322 129 322 5 0 25 -13 43 -28 104 -85 193 -162 235 -204 l47 -47 0 -1647
0 -1648 -67 -64 c-119 -113 -301 -252 -404 -310 -74 -41 -84 -47 -89 -52 -3
-3 -59 -31 -125 -62 -225 -105 -384 -154 -670 -203 -193 -33 -595 -23 -795 20
-14 3 -34 7 -45 9 -72 15 -131 31 -229 63 -61 20 -113 37 -116 38 -3 1 -22 9
-44 18 -21 9 -40 17 -42 17 -6 0 -198 97 -249 125 -75 43 -231 151 -310 215
l-70 57 0 1777 0 1776 37 33 c20 17 46 39 58 47 13 8 28 20 34 26 33 30 172
122 177 116 3 -4 63 -164 133 -357z m2814 -4762 l-3 -338 -149 -66 c-353 -157
-662 -240 -1131 -304 -135 -18 -526 -25 -690 -12 -423 34 -769 114 -1158 267
-59 23 -110 47 -114 54 -4 6 -8 158 -8 338 l0 326 27 -14 c16 -8 28 -11 28 -7
0 5 4 3 8 -4 8 -13 180 -96 287 -138 156 -62 437 -148 520 -159 17 -2 37 -6
45 -9 8 -3 31 -8 50 -11 19 -3 46 -7 60 -9 23 -5 90 -15 151 -22 151 -20 534
-26 659 -11 36 4 72 8 80 8 8 0 57 7 109 14 51 8 112 17 135 21 22 3 46 9 52
14 6 5 13 7 16 4 6 -7 210 44 224 56 6 5 13 7 16 4 8 -9 329 105 405 144 23
11 49 21 57 21 8 0 20 8 25 18 6 9 11 13 11 9 0 -9 81 33 92 48 4 6 8 6 8 2 0
-7 70 29 145 75 17 10 33 18 38 18 4 0 6 -152 5 -337z"/>
</g>
</svg>
